<svg width="911" height="603" viewBox="0 0 911 603" fill="none" xmlns="http://www.w3.org/2000/svg">
<rect x="662" y="98" width="151" height="50" rx="4" fill="#FDDFB2"/>
<path d="M748.895 129V124.24L744.999 117.48H746.951L749.743 122.32L752.535 117.48H754.487L750.591 124.24V129H748.895ZM758.074 129.24C757.21 129.24 756.461 129.045 755.826 128.656C755.191 128.267 754.701 127.731 754.354 127.048C754.013 126.36 753.842 125.568 753.842 124.672C753.842 123.771 754.018 122.979 754.37 122.296C754.722 121.608 755.215 121.075 755.85 120.696C756.485 120.312 757.226 120.12 758.074 120.12C758.938 120.12 759.687 120.315 760.322 120.704C760.957 121.093 761.447 121.629 761.794 122.312C762.141 122.995 762.314 123.781 762.314 124.672C762.314 125.573 762.138 126.368 761.786 127.056C761.439 127.739 760.949 128.275 760.314 128.664C759.679 129.048 758.933 129.24 758.074 129.24ZM758.074 127.664C758.901 127.664 759.517 127.387 759.922 126.832C760.333 126.272 760.538 125.552 760.538 124.672C760.538 123.771 760.33 123.051 759.914 122.512C759.503 121.968 758.89 121.696 758.074 121.696C757.514 121.696 757.053 121.824 756.69 122.08C756.327 122.331 756.058 122.68 755.882 123.128C755.706 123.571 755.618 124.085 755.618 124.672C755.618 125.579 755.826 126.304 756.242 126.848C756.658 127.392 757.269 127.664 758.074 127.664ZM767.328 129.232C766.731 129.232 766.229 129.136 765.824 128.944C765.419 128.752 765.088 128.501 764.832 128.192C764.581 127.877 764.389 127.536 764.256 127.168C764.123 126.8 764.032 126.44 763.984 126.088C763.936 125.736 763.912 125.427 763.912 125.16V120.36H765.608V124.608C765.608 124.944 765.635 125.291 765.688 125.648C765.747 126 765.853 126.328 766.008 126.632C766.168 126.936 766.389 127.181 766.672 127.368C766.96 127.555 767.333 127.648 767.792 127.648C768.091 127.648 768.373 127.6 768.64 127.504C768.907 127.403 769.139 127.243 769.336 127.024C769.539 126.805 769.696 126.517 769.808 126.16C769.925 125.803 769.984 125.368 769.984 124.856L771.024 125.248C771.024 126.032 770.877 126.725 770.584 127.328C770.291 127.925 769.869 128.392 769.32 128.728C768.771 129.064 768.107 129.232 767.328 129.232ZM770.184 129V126.504H769.984V120.36H771.672V129H770.184ZM778.86 129C778.316 129.107 777.783 129.152 777.26 129.136C776.737 129.12 776.271 129.019 775.86 128.832C775.449 128.645 775.14 128.352 774.932 127.952C774.745 127.595 774.644 127.232 774.628 126.864C774.617 126.491 774.612 126.069 774.612 125.6V117.96H776.292V125.52C776.292 125.867 776.295 126.168 776.3 126.424C776.311 126.68 776.367 126.896 776.468 127.072C776.66 127.403 776.964 127.592 777.38 127.64C777.801 127.683 778.295 127.664 778.86 127.584V129ZM772.956 121.704V120.36H778.86V121.704H772.956ZM786.746 129V124.752C786.746 124.416 786.716 124.072 786.658 123.72C786.604 123.363 786.498 123.032 786.338 122.728C786.183 122.424 785.962 122.179 785.674 121.992C785.391 121.805 785.02 121.712 784.562 121.712C784.263 121.712 783.98 121.763 783.714 121.864C783.447 121.96 783.212 122.117 783.01 122.336C782.812 122.555 782.655 122.843 782.538 123.2C782.426 123.557 782.37 123.992 782.37 124.504L781.33 124.112C781.33 123.328 781.476 122.637 781.77 122.04C782.063 121.437 782.484 120.968 783.034 120.632C783.583 120.296 784.247 120.128 785.026 120.128C785.623 120.128 786.124 120.224 786.53 120.416C786.935 120.608 787.263 120.861 787.514 121.176C787.77 121.485 787.964 121.824 788.098 122.192C788.231 122.56 788.322 122.92 788.37 123.272C788.418 123.624 788.442 123.933 788.442 124.2V129H786.746ZM780.674 129V117.48H782.17V123.696H782.37V129H780.674Z" fill="#2D2A56"/>
<rect x="661.999" y="98" width="50" height="50" rx="4" fill="#FCB040"/>
<g clip-path="url(#clip0_425_9991)">
<path fill-rule="evenodd" clip-rule="evenodd" d="M684.55 124.484C684.038 124.029 683.632 123.7 683.546 122.753H683.491C683.364 122.754 683.238 122.721 683.128 122.658C682.945 122.543 682.805 122.372 682.728 122.17C682.542 121.745 682.402 120.63 682.861 120.311L682.775 120.253L682.765 120.129C682.747 119.904 682.742 119.641 682.737 119.348C682.721 118.299 682.7 117.027 681.855 116.773L681.494 116.664L681.731 116.367C682.356 115.578 683.066 114.859 683.847 114.224C684.65 113.586 685.483 113.163 686.29 113.037C686.712 112.968 687.143 112.992 687.554 113.107C687.965 113.222 688.346 113.425 688.67 113.703C688.904 113.894 689.117 114.109 689.308 114.343C689.686 114.384 690.051 114.505 690.379 114.697C690.707 114.888 690.991 115.147 691.212 115.456C691.493 115.832 691.703 116.256 691.832 116.708C691.966 117.168 692.021 117.648 691.995 118.127C691.97 118.991 691.616 119.813 691.007 120.427C691.114 120.429 691.22 120.456 691.315 120.505C691.666 120.694 691.678 121.102 691.585 121.446C691.494 121.73 691.378 122.064 691.269 122.342C691.136 122.72 690.944 122.79 690.566 122.749C690.547 123.68 690.115 123.937 689.536 124.484C689.56 125.887 684.516 125.723 684.547 124.484H684.55ZM684.288 125.642L685.789 129.978L686.543 127.434L686.175 127.03C685.896 126.623 685.993 126.162 686.5 126.079C686.686 126.061 686.872 126.057 687.059 126.068C687.263 126.055 687.469 126.063 687.672 126.091C688.151 126.197 688.201 126.66 687.962 127.03L687.592 127.434L688.346 129.978L689.712 125.642C690.688 126.522 694.14 126.7 695.219 127.302C696.714 128.138 696.673 131.335 697 132.836H677C677.326 131.353 677.291 128.13 678.781 127.302C680.107 126.563 683.203 126.62 684.288 125.642Z" fill="white"/>
</g>
<path d="M645.391 123.778L670.546 108.473L671.224 137.91L645.391 123.778Z" fill="#FCB040"/>
<rect x="742" y="370" width="169" height="50" rx="4" fill="#FDDFB2"/>
<path d="M830.295 401.24C829.468 401.24 828.722 401.099 828.055 400.816C827.394 400.528 826.847 400.12 826.415 399.592C825.988 399.059 825.711 398.427 825.583 397.696L827.327 397.432C827.503 398.136 827.871 398.685 828.431 399.08C828.991 399.469 829.644 399.664 830.391 399.664C830.855 399.664 831.282 399.592 831.671 399.448C832.06 399.299 832.372 399.088 832.607 398.816C832.847 398.539 832.967 398.208 832.967 397.824C832.967 397.616 832.93 397.432 832.855 397.272C832.786 397.112 832.687 396.973 832.559 396.856C832.436 396.733 832.284 396.629 832.103 396.544C831.927 396.453 831.732 396.376 831.519 396.312L828.567 395.44C828.279 395.355 827.986 395.245 827.687 395.112C827.388 394.973 827.114 394.795 826.863 394.576C826.618 394.352 826.418 394.077 826.263 393.752C826.108 393.421 826.031 393.021 826.031 392.552C826.031 391.843 826.212 391.243 826.575 390.752C826.943 390.256 827.439 389.883 828.063 389.632C828.687 389.376 829.386 389.248 830.159 389.248C830.938 389.259 831.634 389.397 832.247 389.664C832.866 389.931 833.378 390.315 833.783 390.816C834.194 391.312 834.476 391.915 834.631 392.624L832.839 392.928C832.759 392.496 832.588 392.125 832.327 391.816C832.066 391.501 831.746 391.261 831.367 391.096C830.988 390.925 830.578 390.837 830.135 390.832C829.708 390.821 829.316 390.885 828.959 391.024C828.607 391.163 828.324 391.357 828.111 391.608C827.903 391.859 827.799 392.147 827.799 392.472C827.799 392.792 827.892 393.051 828.079 393.248C828.266 393.445 828.495 393.603 828.767 393.72C829.044 393.832 829.319 393.925 829.591 394L831.719 394.6C831.986 394.675 832.287 394.776 832.623 394.904C832.964 395.027 833.292 395.2 833.607 395.424C833.927 395.648 834.191 395.947 834.399 396.32C834.607 396.688 834.711 397.152 834.711 397.712C834.711 398.293 834.594 398.805 834.359 399.248C834.124 399.685 833.802 400.053 833.391 400.352C832.986 400.645 832.516 400.867 831.983 401.016C831.45 401.165 830.887 401.24 830.295 401.24ZM836.416 401V389.48H837.928L842.104 398.144L846.256 389.48H847.784V400.992H846.2V393.112L842.48 401H841.72L837.992 393.112V401H836.416ZM850.025 401V389.48H857.385V391.056H851.697V394.288H856.425V395.864H851.697V399.424H857.385V401H850.025ZM862.611 401.232C861.56 401.232 860.704 401 860.043 400.536C859.381 400.072 858.976 399.419 858.827 398.576L860.539 398.312C860.645 398.76 860.891 399.115 861.275 399.376C861.664 399.632 862.147 399.76 862.723 399.76C863.245 399.76 863.653 399.653 863.947 399.44C864.245 399.227 864.395 398.933 864.395 398.56C864.395 398.341 864.341 398.165 864.235 398.032C864.133 397.893 863.917 397.763 863.587 397.64C863.256 397.517 862.752 397.365 862.075 397.184C861.333 396.992 860.744 396.787 860.307 396.568C859.875 396.344 859.565 396.085 859.379 395.792C859.197 395.493 859.107 395.133 859.107 394.712C859.107 394.189 859.245 393.733 859.523 393.344C859.8 392.955 860.189 392.653 860.691 392.44C861.197 392.227 861.789 392.12 862.467 392.12C863.128 392.12 863.717 392.224 864.235 392.432C864.752 392.64 865.171 392.936 865.491 393.32C865.811 393.699 866.003 394.144 866.067 394.656L864.355 394.968C864.296 394.552 864.101 394.224 863.771 393.984C863.44 393.744 863.011 393.613 862.483 393.592C861.976 393.571 861.565 393.656 861.251 393.848C860.936 394.035 860.779 394.293 860.779 394.624C860.779 394.816 860.837 394.979 860.955 395.112C861.077 395.245 861.312 395.373 861.659 395.496C862.005 395.619 862.517 395.765 863.195 395.936C863.92 396.123 864.496 396.331 864.923 396.56C865.349 396.784 865.653 397.053 865.835 397.368C866.021 397.677 866.115 398.053 866.115 398.496C866.115 399.349 865.803 400.019 865.179 400.504C864.56 400.989 863.704 401.232 862.611 401.232Z" fill="#2D2A56"/>
<rect x="741.999" y="370" width="50" height="50" rx="4" fill="#FCB040"/>
<g clip-path="url(#clip1_425_9991)">
<path fill-rule="evenodd" clip-rule="evenodd" d="M760.559 389.412L760.202 392.247H764.078L763.721 389.412H760.559ZM763.456 388.527C763.473 388.567 763.482 388.61 763.483 388.654C763.484 388.698 763.476 388.741 763.46 388.782C763.444 388.823 763.42 388.86 763.389 388.891C763.359 388.923 763.322 388.948 763.282 388.965C763.242 388.983 763.199 388.992 763.155 388.993C763.111 388.993 763.068 388.985 763.027 388.969C762.986 388.953 762.949 388.929 762.918 388.899C762.886 388.868 762.861 388.832 762.844 388.792C762.758 388.6 762.723 388.389 762.742 388.18C762.764 387.991 762.824 387.809 762.917 387.644C762.942 387.597 762.977 387.557 763.021 387.527C763.064 387.497 763.114 387.478 763.166 387.471C763.219 387.464 763.272 387.47 763.321 387.488C763.371 387.506 763.416 387.535 763.451 387.574C763.664 387.773 763.924 387.913 764.206 387.982C764.334 388.015 764.469 388.007 764.592 387.96C764.699 387.91 764.782 387.821 764.826 387.711C764.912 387.493 764.938 387.257 764.904 387.026C764.897 386.947 764.918 386.868 764.964 386.804C765.009 386.739 765.077 386.693 765.153 386.674C765.23 386.655 765.311 386.663 765.382 386.698C765.453 386.733 765.509 386.792 765.54 386.864C765.649 387.056 765.803 387.218 765.989 387.337C766.174 387.456 766.385 387.529 766.605 387.55C766.814 387.58 767.028 387.567 767.233 387.513C767.408 387.468 767.569 387.377 767.698 387.25C767.902 387.046 767.998 386.699 767.902 386.23C767.893 386.187 767.893 386.143 767.902 386.1C767.91 386.057 767.927 386.017 767.951 385.98C767.975 385.944 768.007 385.913 768.043 385.888C768.079 385.864 768.12 385.847 768.163 385.839C768.197 385.833 768.232 385.833 768.267 385.839C768.51 385.863 768.756 385.816 768.973 385.704C769.191 385.591 769.37 385.418 769.491 385.204C769.574 385.044 769.619 384.867 769.621 384.686C769.623 384.522 769.581 384.361 769.499 384.219C769.334 383.944 768.977 383.76 768.406 383.811C768.329 383.819 768.252 383.801 768.188 383.759C768.124 383.717 768.076 383.654 768.053 383.581C768.012 383.405 767.935 383.24 767.827 383.096C767.719 382.952 767.582 382.832 767.425 382.744C767.28 382.677 767.12 382.652 766.962 382.673C766.798 382.695 766.643 382.759 766.511 382.859C766.379 382.965 766.271 383.097 766.194 383.248C766.118 383.399 766.074 383.565 766.066 383.734C766.061 383.813 766.027 383.887 765.971 383.944C765.916 384 765.841 384.035 765.762 384.042C765.683 384.048 765.605 384.026 765.54 383.98C765.476 383.934 765.43 383.866 765.411 383.789C765.338 383.503 765.178 383.246 764.955 383.052C764.794 382.926 764.594 382.859 764.39 382.863C764.172 382.871 763.961 382.937 763.778 383.054C763.524 383.209 763.325 383.439 763.211 383.713C763.195 383.754 763.171 383.791 763.14 383.822C763.11 383.854 763.073 383.878 763.033 383.896C762.993 383.913 762.95 383.922 762.906 383.923C762.862 383.923 762.819 383.915 762.778 383.899C762.739 383.885 762.702 383.863 762.67 383.836C762.433 383.582 762.111 383.426 761.765 383.397C761.611 383.391 761.459 383.431 761.328 383.511C761.199 383.596 761.099 383.717 761.041 383.86V383.872C760.924 384.223 760.937 384.604 761.077 384.945C761.106 385.028 761.1 385.119 761.062 385.198C761.024 385.277 760.956 385.338 760.873 385.367H760.847C760.672 385.404 760.512 385.489 760.383 385.612C760.254 385.735 760.162 385.892 760.117 386.065V386.079C760.088 386.214 760.088 386.353 760.117 386.487C760.142 386.621 760.199 386.748 760.282 386.856C760.486 387.111 760.843 387.264 761.379 387.189C761.442 387.179 761.507 387.189 761.565 387.215C761.623 387.241 761.672 387.284 761.707 387.337C761.741 387.391 761.76 387.453 761.76 387.517C761.76 387.58 761.742 387.643 761.708 387.697C761.61 387.857 761.53 388.027 761.469 388.204C761.415 388.365 761.384 388.533 761.379 388.702C761.382 388.748 761.375 388.794 761.359 388.836C761.343 388.879 761.319 388.919 761.287 388.952C761.255 388.985 761.217 389.011 761.175 389.028C761.132 389.046 761.087 389.054 761.041 389.054C760.995 389.053 760.95 389.042 760.909 389.023C760.867 389.004 760.83 388.977 760.799 388.943C760.769 388.908 760.746 388.868 760.731 388.825C760.717 388.781 760.712 388.735 760.716 388.69C760.722 388.454 760.764 388.221 760.841 387.998L760.888 387.864C760.665 387.849 760.448 387.786 760.25 387.681C760.053 387.576 759.88 387.431 759.744 387.254C759.595 387.064 759.495 386.842 759.45 386.605C759.405 386.379 759.409 386.146 759.462 385.922V385.906C759.519 385.671 759.629 385.452 759.784 385.266C759.939 385.08 760.134 384.933 760.355 384.835C760.252 384.43 760.277 384.002 760.425 383.611V383.593C760.534 383.325 760.724 383.098 760.967 382.942C761.211 382.79 761.496 382.714 761.783 382.726C762.15 382.743 762.504 382.867 762.803 383.081C762.971 382.841 763.187 382.639 763.437 382.487C763.724 382.31 764.053 382.212 764.39 382.204C764.745 382.196 765.092 382.31 765.373 382.528C765.485 382.619 765.586 382.722 765.675 382.836C765.792 382.638 765.946 382.465 766.129 382.326C766.353 382.158 766.617 382.05 766.894 382.012C767.178 381.975 767.466 382.021 767.724 382.143C768.134 382.35 768.451 382.703 768.614 383.132C769.329 383.124 769.825 383.428 770.084 383.866C770.23 384.113 770.305 384.395 770.3 384.682C770.297 384.966 770.227 385.246 770.096 385.498C769.953 385.776 769.742 386.012 769.481 386.185C769.221 386.359 768.921 386.462 768.61 386.487C768.627 386.709 768.598 386.933 768.525 387.143C768.452 387.354 768.336 387.547 768.185 387.711C767.972 387.928 767.705 388.084 767.41 388.162C767.086 388.247 766.746 388.261 766.416 388.201C766.086 388.141 765.773 388.009 765.499 387.815C765.479 387.879 765.455 387.941 765.428 388.002C765.316 388.255 765.114 388.456 764.861 388.567C764.612 388.67 764.338 388.693 764.076 388.633C763.841 388.578 763.617 388.484 763.415 388.353C763.422 388.413 763.439 388.472 763.464 388.527H763.456ZM757.5 405.875H777.5V407.062H757.5V405.875ZM758.004 396.481L759.719 396.685L759.896 395.257H764.384L764.638 397.317L776.988 398.867V405.437H758.004V396.481ZM760.139 392.904L759.964 394.596H764.324L764.149 392.904H760.139ZM761.616 399.789H764.19C764.237 399.789 764.284 399.799 764.328 399.817C764.372 399.835 764.412 399.862 764.446 399.896C764.479 399.929 764.506 399.969 764.524 400.013C764.542 400.057 764.551 400.105 764.551 400.152V403.391C764.55 403.486 764.512 403.578 764.444 403.645C764.377 403.712 764.285 403.75 764.19 403.75H761.616C761.569 403.75 761.522 403.741 761.478 403.723C761.435 403.705 761.395 403.678 761.362 403.645C761.329 403.612 761.302 403.572 761.284 403.528C761.266 403.485 761.257 403.438 761.257 403.391V400.152C761.257 400.105 761.266 400.058 761.284 400.015C761.302 399.971 761.329 399.932 761.362 399.898C761.395 399.865 761.435 399.839 761.478 399.821C761.522 399.803 761.569 399.793 761.616 399.793V399.789ZM769.668 400.401H772.244C772.291 400.401 772.338 400.411 772.382 400.429C772.426 400.448 772.465 400.474 772.499 400.508C772.532 400.542 772.558 400.582 772.576 400.626C772.594 400.67 772.603 400.717 772.603 400.764V403.391C772.602 403.486 772.564 403.577 772.497 403.644C772.43 403.711 772.339 403.749 772.244 403.75H769.668C769.573 403.749 769.482 403.711 769.415 403.644C769.348 403.577 769.31 403.486 769.309 403.391V400.764C769.31 400.669 769.348 400.579 769.415 400.511C769.482 400.444 769.573 400.406 769.668 400.405V400.401Z" fill="white"/>
</g>
<path d="M725.391 395.778L750.546 380.473L751.224 409.91L725.391 395.778Z" fill="#FCB040"/>
<rect x="620" y="526" width="171" height="50" rx="4" fill="#FDDFB2"/>
<path d="M704.119 557V545.48H710.943V547.152H705.791V550.4H709.983V552.08H705.791V557H704.119ZM712.545 546.944V545.32H714.217V546.944H712.545ZM712.545 557V548.36H714.217V557H712.545ZM722.683 557V552.752C722.683 552.416 722.654 552.072 722.595 551.72C722.542 551.363 722.435 551.032 722.275 550.728C722.12 550.424 721.899 550.179 721.611 549.992C721.328 549.805 720.958 549.712 720.499 549.712C720.2 549.712 719.918 549.763 719.651 549.864C719.384 549.96 719.15 550.117 718.947 550.336C718.75 550.555 718.592 550.843 718.475 551.2C718.363 551.557 718.307 551.992 718.307 552.504L717.267 552.112C717.267 551.328 717.414 550.637 717.707 550.04C718 549.437 718.422 548.968 718.971 548.632C719.52 548.296 720.184 548.128 720.963 548.128C721.56 548.128 722.062 548.224 722.467 548.416C722.872 548.608 723.2 548.861 723.451 549.176C723.707 549.485 723.902 549.824 724.035 550.192C724.168 550.56 724.259 550.92 724.307 551.272C724.355 551.624 724.379 551.933 724.379 552.2V557H722.683ZM716.611 557V548.36H718.107V550.856H718.307V557H716.611ZM728.903 557.24C728.263 557.24 727.727 557.123 727.295 556.888C726.863 556.648 726.535 556.333 726.311 555.944C726.092 555.549 725.983 555.117 725.983 554.648C725.983 554.211 726.06 553.827 726.215 553.496C726.369 553.165 726.599 552.885 726.903 552.656C727.207 552.421 727.58 552.232 728.023 552.088C728.407 551.976 728.841 551.877 729.327 551.792C729.812 551.707 730.321 551.627 730.855 551.552C731.393 551.477 731.927 551.403 732.455 551.328L731.847 551.664C731.857 550.987 731.713 550.485 731.415 550.16C731.121 549.829 730.615 549.664 729.895 549.664C729.441 549.664 729.025 549.771 728.647 549.984C728.268 550.192 728.004 550.539 727.855 551.024L726.295 550.544C726.508 549.803 726.913 549.213 727.511 548.776C728.113 548.339 728.913 548.12 729.911 548.12C730.684 548.12 731.356 548.253 731.927 548.52C732.503 548.781 732.924 549.197 733.191 549.768C733.329 550.051 733.415 550.349 733.447 550.664C733.479 550.979 733.495 551.317 733.495 551.68V557H732.015V555.024L732.303 555.28C731.945 555.941 731.489 556.435 730.935 556.76C730.385 557.08 729.708 557.24 728.903 557.24ZM729.199 555.872C729.673 555.872 730.081 555.789 730.423 555.624C730.764 555.453 731.039 555.237 731.247 554.976C731.455 554.715 731.591 554.443 731.655 554.16C731.745 553.904 731.796 553.616 731.807 553.296C731.823 552.976 731.831 552.72 731.831 552.528L732.375 552.728C731.847 552.808 731.367 552.88 730.935 552.944C730.503 553.008 730.111 553.072 729.759 553.136C729.412 553.195 729.103 553.267 728.831 553.352C728.601 553.432 728.396 553.528 728.215 553.64C728.039 553.752 727.897 553.888 727.791 554.048C727.689 554.208 727.639 554.403 727.639 554.632C727.639 554.856 727.695 555.064 727.807 555.256C727.919 555.443 728.089 555.592 728.319 555.704C728.548 555.816 728.841 555.872 729.199 555.872ZM741.636 557V552.752C741.636 552.416 741.607 552.072 741.548 551.72C741.495 551.363 741.388 551.032 741.228 550.728C741.073 550.424 740.852 550.179 740.564 549.992C740.281 549.805 739.911 549.712 739.452 549.712C739.153 549.712 738.871 549.763 738.604 549.864C738.337 549.96 738.103 550.117 737.9 550.336C737.703 550.555 737.545 550.843 737.428 551.2C737.316 551.557 737.26 551.992 737.26 552.504L736.22 552.112C736.22 551.328 736.367 550.637 736.66 550.04C736.953 549.437 737.375 548.968 737.924 548.632C738.473 548.296 739.137 548.128 739.916 548.128C740.513 548.128 741.015 548.224 741.42 548.416C741.825 548.608 742.153 548.861 742.404 549.176C742.66 549.485 742.855 549.824 742.988 550.192C743.121 550.56 743.212 550.92 743.26 551.272C743.308 551.624 743.332 551.933 743.332 552.2V557H741.636ZM735.564 557V548.36H737.06V550.856H737.26V557H735.564ZM749.003 557.24C748.117 557.24 747.365 557.043 746.747 556.648C746.128 556.253 745.653 555.712 745.323 555.024C744.997 554.336 744.832 553.555 744.827 552.68C744.832 551.789 745.003 551.003 745.339 550.32C745.675 549.632 746.155 549.093 746.779 548.704C747.403 548.315 748.152 548.12 749.027 548.12C749.971 548.12 750.776 548.355 751.443 548.824C752.115 549.293 752.557 549.936 752.771 550.752L751.107 551.232C750.941 550.747 750.669 550.371 750.291 550.104C749.917 549.832 749.488 549.696 749.003 549.696C748.453 549.696 748.003 549.827 747.651 550.088C747.299 550.344 747.037 550.696 746.867 551.144C746.696 551.592 746.608 552.104 746.603 552.68C746.608 553.571 746.811 554.291 747.211 554.84C747.616 555.389 748.213 555.664 749.003 555.664C749.541 555.664 749.976 555.541 750.307 555.296C750.643 555.045 750.899 554.688 751.075 554.224L752.771 554.624C752.488 555.467 752.021 556.115 751.371 556.568C750.72 557.016 749.931 557.24 749.003 557.24ZM757.998 557.24C757.139 557.24 756.385 557.053 755.734 556.68C755.089 556.301 754.585 555.776 754.222 555.104C753.865 554.427 753.686 553.643 753.686 552.752C753.686 551.808 753.862 550.989 754.214 550.296C754.571 549.603 755.067 549.067 755.702 548.688C756.337 548.309 757.075 548.12 757.918 548.12C758.798 548.12 759.547 548.325 760.166 548.736C760.785 549.141 761.246 549.72 761.55 550.472C761.859 551.224 761.982 552.117 761.918 553.152H760.246V552.544C760.235 551.541 760.043 550.8 759.67 550.32C759.302 549.84 758.739 549.6 757.982 549.6C757.145 549.6 756.515 549.864 756.094 550.392C755.673 550.92 755.462 551.683 755.462 552.68C755.462 553.629 755.673 554.365 756.094 554.888C756.515 555.405 757.123 555.664 757.918 555.664C758.441 555.664 758.891 555.547 759.27 555.312C759.654 555.072 759.953 554.731 760.166 554.288L761.806 554.808C761.47 555.581 760.961 556.181 760.278 556.608C759.595 557.029 758.835 557.24 757.998 557.24ZM754.918 553.152V551.848H761.086V553.152H754.918Z" fill="#2D2A56"/>
<rect x="619.999" y="526" width="50" height="50" rx="4" fill="#FCB040"/>
<g clip-path="url(#clip2_425_9991)">
<path fill-rule="evenodd" clip-rule="evenodd" d="M644.18 540.368C643.698 538.947 643.266 537.513 642.898 536.053C644.264 534.556 649.535 534.754 651.053 536.031L649.65 539.368C650.406 538.376 650.66 537.97 651.109 537.416C651.299 537.541 651.477 537.68 651.645 537.833C652.043 538.193 652.401 538.594 652.472 539.15C652.518 539.51 652.416 539.878 652.094 540.254L648.873 544.005C648.459 543.937 648.053 543.838 647.66 543.698C647.842 543.269 648.063 542.794 648.246 542.366L647.073 543.63C645.853 543.371 644.868 543.525 643.954 544.01L640.685 540.089C640.492 539.855 640.403 539.622 640.403 539.388C640.406 538.442 641.817 537.622 642.561 537.312L644.18 540.368ZM648.368 547.452L647.731 544.536C650.462 545.043 654.84 550.599 656.254 553.124C656.974 554.414 657.609 555.835 658.127 557.421C659.157 561.264 658.165 564.858 653.997 565.695C651.386 566.221 646.515 566.256 643.769 566.114C640.817 565.962 636.246 565.967 635.053 562.934C633.127 558.041 636.657 552.211 639.875 548.642C640.299 548.173 640.736 547.736 641.19 547.33C642.36 546.3 643.624 545.079 645.129 544.569L643.672 547.279L645.787 544.477H646.901L648.368 547.452ZM647.01 549.845V550.36C647.556 550.419 648.025 550.531 648.416 550.698C648.807 550.868 649.147 551.122 649.439 551.465C649.67 551.726 649.848 551.995 649.972 552.269C650.096 552.546 650.16 552.797 650.16 553.028C650.16 553.284 650.066 553.505 649.881 553.69C649.693 553.876 649.467 553.97 649.2 553.97C648.698 553.97 648.373 553.698 648.226 553.157C648.056 552.52 647.652 552.094 647.007 551.886V555.071C647.639 555.244 648.147 555.404 648.52 555.546C648.896 555.688 649.233 555.893 649.528 556.165C649.845 556.444 650.089 556.782 650.261 557.17C650.431 557.561 650.518 557.987 650.518 558.452C650.518 559.033 650.383 559.579 650.106 560.084C649.832 560.594 649.429 561.005 648.898 561.33C648.365 561.652 647.736 561.843 647.005 561.901V562.421C647.005 562.721 646.974 562.942 646.916 563.079C646.858 563.216 646.731 563.284 646.53 563.284C646.348 563.284 646.218 563.228 646.145 563.117C646.071 563.005 646.035 562.83 646.035 562.594V561.914C645.439 561.848 644.916 561.708 644.469 561.492C644.023 561.279 643.65 561.013 643.35 560.693C643.053 560.371 642.83 560.041 642.69 559.698C642.546 559.353 642.477 559.013 642.477 558.683C642.477 558.439 642.571 558.218 642.764 558.023C642.954 557.827 643.193 557.728 643.477 557.728C643.708 557.728 643.901 557.782 644.061 557.888C644.218 557.995 644.327 558.147 644.391 558.34C644.528 558.759 644.647 559.079 644.749 559.302C644.853 559.523 645.007 559.728 645.213 559.911C645.419 560.094 645.693 560.236 646.035 560.333V556.774C645.35 556.584 644.782 556.376 644.322 556.142C643.863 555.909 643.49 555.581 643.205 555.152C642.921 554.723 642.776 554.173 642.776 553.5C642.776 552.622 643.056 551.901 643.614 551.343C644.172 550.782 644.98 550.454 646.035 550.363V549.863C646.035 549.434 646.198 549.221 646.518 549.221C646.848 549.218 647.01 549.426 647.01 549.845ZM646.038 554.784V551.853C645.609 551.98 645.274 552.147 645.035 552.358C644.794 552.566 644.675 552.886 644.675 553.31C644.675 553.711 644.787 554.018 645.013 554.223C645.236 554.429 645.579 554.617 646.038 554.784ZM647.01 557.056V560.411C647.525 560.31 647.921 560.104 648.203 559.792C648.482 559.477 648.624 559.117 648.624 558.703C648.624 558.259 648.487 557.916 648.213 557.673C647.941 557.429 647.54 557.223 647.01 557.056Z" fill="white"/>
</g>
<path d="M603.391 551.778L628.546 536.473L629.224 565.91L603.391 551.778Z" fill="#FCB040"/>
<rect y="355" width="173" height="50" rx="4" fill="#FDDFB2"/>
<path d="M38.992 386V376.056H35.16V374.48H44.496V376.056H40.664V386H38.992ZM44.9794 386V377.36H46.4674V379.456L46.2594 379.184C46.366 378.907 46.5047 378.653 46.6754 378.424C46.846 378.189 47.0434 377.997 47.2674 377.848C47.486 377.688 47.7287 377.565 47.9954 377.48C48.2674 377.389 48.5447 377.336 48.8274 377.32C49.11 377.299 49.382 377.312 49.6434 377.36V378.928C49.3607 378.853 49.046 378.832 48.6994 378.864C48.358 378.896 48.0434 379.005 47.7554 379.192C47.4834 379.368 47.2674 379.581 47.1074 379.832C46.9527 380.083 46.8407 380.363 46.7714 380.672C46.702 380.976 46.6674 381.299 46.6674 381.64V386H44.9794ZM53.3569 386.24C52.7169 386.24 52.1809 386.123 51.7489 385.888C51.3169 385.648 50.9889 385.333 50.7649 384.944C50.5462 384.549 50.4369 384.117 50.4369 383.648C50.4369 383.211 50.5142 382.827 50.6689 382.496C50.8235 382.165 51.0529 381.885 51.3569 381.656C51.6609 381.421 52.0342 381.232 52.4769 381.088C52.8609 380.976 53.2955 380.877 53.7809 380.792C54.2662 380.707 54.7755 380.627 55.3089 380.552C55.8475 380.477 56.3809 380.403 56.9089 380.328L56.3009 380.664C56.3115 379.987 56.1675 379.485 55.8689 379.16C55.5755 378.829 55.0689 378.664 54.3489 378.664C53.8955 378.664 53.4795 378.771 53.1009 378.984C52.7222 379.192 52.4582 379.539 52.3089 380.024L50.7489 379.544C50.9622 378.803 51.3675 378.213 51.9649 377.776C52.5675 377.339 53.3675 377.12 54.3649 377.12C55.1382 377.12 55.8102 377.253 56.3809 377.52C56.9569 377.781 57.3782 378.197 57.6449 378.768C57.7835 379.051 57.8689 379.349 57.9009 379.664C57.9329 379.979 57.9489 380.317 57.9489 380.68V386H56.4689V384.024L56.7569 384.28C56.3995 384.941 55.9435 385.435 55.3889 385.76C54.8395 386.08 54.1622 386.24 53.3569 386.24ZM53.6529 384.872C54.1275 384.872 54.5355 384.789 54.8769 384.624C55.2182 384.453 55.4929 384.237 55.7009 383.976C55.9089 383.715 56.0449 383.443 56.1089 383.16C56.1995 382.904 56.2502 382.616 56.2609 382.296C56.2769 381.976 56.2849 381.72 56.2849 381.528L56.8289 381.728C56.3009 381.808 55.8209 381.88 55.3889 381.944C54.9569 382.008 54.5649 382.072 54.2129 382.136C53.8662 382.195 53.5569 382.267 53.2849 382.352C53.0555 382.432 52.8502 382.528 52.6689 382.64C52.4929 382.752 52.3515 382.888 52.2449 383.048C52.1435 383.208 52.0929 383.403 52.0929 383.632C52.0929 383.856 52.1489 384.064 52.2609 384.256C52.3729 384.443 52.5435 384.592 52.7729 384.704C53.0022 384.816 53.2955 384.872 53.6529 384.872ZM60.1863 375.944V374.32H61.8583V375.944H60.1863ZM60.1863 386V377.36H61.8583V386H60.1863ZM70.3246 386V381.752C70.3246 381.416 70.2953 381.072 70.2366 380.72C70.1833 380.363 70.0766 380.032 69.9166 379.728C69.762 379.424 69.5406 379.179 69.2526 378.992C68.97 378.805 68.5993 378.712 68.1406 378.712C67.842 378.712 67.5593 378.763 67.2926 378.864C67.026 378.96 66.7913 379.117 66.5886 379.336C66.3913 379.555 66.234 379.843 66.1166 380.2C66.0046 380.557 65.9486 380.992 65.9486 381.504L64.9086 381.112C64.9086 380.328 65.0553 379.637 65.3486 379.04C65.642 378.437 66.0633 377.968 66.6126 377.632C67.162 377.296 67.826 377.128 68.6046 377.128C69.202 377.128 69.7033 377.224 70.1086 377.416C70.514 377.608 70.842 377.861 71.0926 378.176C71.3486 378.485 71.5433 378.824 71.6766 379.192C71.81 379.56 71.9006 379.92 71.9486 380.272C71.9966 380.624 72.0206 380.933 72.0206 381.2V386H70.3246ZM64.2526 386V377.36H65.7486V379.856H65.9486V386H64.2526ZM74.2644 375.944V374.32H75.9364V375.944H74.2644ZM74.2644 386V377.36H75.9364V386H74.2644ZM84.4028 386V381.752C84.4028 381.416 84.3734 381.072 84.3148 380.72C84.2614 380.363 84.1548 380.032 83.9948 379.728C83.8401 379.424 83.6188 379.179 83.3308 378.992C83.0481 378.805 82.6774 378.712 82.2188 378.712C81.9201 378.712 81.6374 378.763 81.3708 378.864C81.1041 378.96 80.8694 379.117 80.6668 379.336C80.4694 379.555 80.3121 379.843 80.1948 380.2C80.0828 380.557 80.0268 380.992 80.0268 381.504L78.9868 381.112C78.9868 380.328 79.1334 379.637 79.4268 379.04C79.7201 378.437 80.1414 377.968 80.6908 377.632C81.2401 377.296 81.9041 377.128 82.6828 377.128C83.2801 377.128 83.7814 377.224 84.1868 377.416C84.5921 377.608 84.9201 377.861 85.1708 378.176C85.4268 378.485 85.6214 378.824 85.7548 379.192C85.8881 379.56 85.9788 379.92 86.0268 380.272C86.0748 380.624 86.0988 380.933 86.0988 381.2V386H84.4028ZM78.3308 386V377.36H79.8268V379.856H80.0268V386H78.3308ZM91.7425 390.08C91.2785 390.08 90.8278 390.008 90.3905 389.864C89.9585 389.72 89.5638 389.507 89.2065 389.224C88.8492 388.947 88.5532 388.603 88.3185 388.192L89.8625 387.408C90.0492 387.776 90.3158 388.045 90.6625 388.216C91.0092 388.387 91.3745 388.472 91.7585 388.472C92.2332 388.472 92.6385 388.387 92.9745 388.216C93.3105 388.051 93.5638 387.8 93.7345 387.464C93.9105 387.128 93.9958 386.712 93.9905 386.216V383.8H94.1905V377.36H95.6705V386.232C95.6705 386.461 95.6625 386.68 95.6465 386.888C95.6305 387.096 95.6012 387.304 95.5585 387.512C95.4358 388.093 95.2012 388.573 94.8545 388.952C94.5132 389.331 94.0758 389.613 93.5425 389.8C93.0145 389.987 92.4145 390.08 91.7425 390.08ZM91.6145 386.24C90.8092 386.24 90.1132 386.04 89.5265 385.64C88.9452 385.24 88.4945 384.696 88.1745 384.008C87.8598 383.315 87.7025 382.536 87.7025 381.672C87.7025 380.803 87.8625 380.027 88.1825 379.344C88.5025 378.656 88.9558 378.115 89.5425 377.72C90.1345 377.32 90.8358 377.12 91.6465 377.12C92.4625 377.12 93.1478 377.32 93.7025 377.72C94.2625 378.115 94.6838 378.656 94.9665 379.344C95.2545 380.032 95.3985 380.808 95.3985 381.672C95.3985 382.536 95.2545 383.312 94.9665 384C94.6785 384.688 94.2545 385.235 93.6945 385.64C93.1345 386.04 92.4412 386.24 91.6145 386.24ZM91.8465 384.728C92.3958 384.728 92.8438 384.597 93.1905 384.336C93.5372 384.075 93.7905 383.715 93.9505 383.256C94.1105 382.797 94.1905 382.269 94.1905 381.672C94.1905 381.075 94.1078 380.547 93.9425 380.088C93.7825 379.629 93.5318 379.272 93.1905 379.016C92.8545 378.76 92.4252 378.632 91.9025 378.632C91.3478 378.632 90.8918 378.768 90.5345 379.04C90.1772 379.312 89.9105 379.677 89.7345 380.136C89.5638 380.595 89.4785 381.107 89.4785 381.672C89.4785 382.243 89.5638 382.76 89.7345 383.224C89.9105 383.683 90.1718 384.048 90.5185 384.32C90.8705 384.592 91.3132 384.728 91.8465 384.728Z" fill="#2D2A56"/>
<rect x="122" y="355" width="50" height="50" rx="4" fill="#FCB040"/>
<path d="M144 380H146C146.265 380 146.52 379.895 146.707 379.707C146.895 379.52 147 379.265 147 379C147 378.735 146.895 378.48 146.707 378.293C146.52 378.105 146.265 378 146 378H144C143.735 378 143.48 378.105 143.293 378.293C143.105 378.48 143 378.735 143 379C143 379.265 143.105 379.52 143.293 379.707C143.48 379.895 143.735 380 144 380ZM158 374H150V373C150 372.735 149.895 372.48 149.707 372.293C149.52 372.105 149.265 372 149 372C148.735 372 148.48 372.105 148.293 372.293C148.105 372.48 148 372.735 148 373V374H140C139.735 374 139.48 374.105 139.293 374.293C139.105 374.48 139 374.735 139 375V385C139 385.796 139.316 386.559 139.879 387.121C140.441 387.684 141.204 388 142 388H146.59L144.29 390.29C144.196 390.383 144.122 390.494 144.071 390.615C144.02 390.737 143.994 390.868 143.994 391C143.994 391.132 144.02 391.263 144.071 391.385C144.122 391.506 144.196 391.617 144.29 391.71C144.383 391.804 144.494 391.878 144.615 391.929C144.737 391.98 144.868 392.006 145 392.006C145.132 392.006 145.263 391.98 145.385 391.929C145.506 391.878 145.617 391.804 145.71 391.71L148 389.41V391C148 391.265 148.105 391.52 148.293 391.707C148.48 391.895 148.735 392 149 392C149.265 392 149.52 391.895 149.707 391.707C149.895 391.52 150 391.265 150 391V389.41L152.29 391.71C152.383 391.804 152.494 391.878 152.615 391.929C152.737 391.98 152.868 392.006 153 392.006C153.132 392.006 153.263 391.98 153.385 391.929C153.506 391.878 153.617 391.804 153.71 391.71C153.804 391.617 153.878 391.506 153.929 391.385C153.98 391.263 154.006 391.132 154.006 391C154.006 390.868 153.98 390.737 153.929 390.615C153.878 390.494 153.804 390.383 153.71 390.29L151.41 388H156C156.796 388 157.559 387.684 158.121 387.121C158.684 386.559 159 385.796 159 385V375C159 374.735 158.895 374.48 158.707 374.293C158.52 374.105 158.265 374 158 374ZM157 385C157 385.265 156.895 385.52 156.707 385.707C156.52 385.895 156.265 386 156 386H142C141.735 386 141.48 385.895 141.293 385.707C141.105 385.52 141 385.265 141 385V376H157V385ZM144 384H150C150.265 384 150.52 383.895 150.707 383.707C150.895 383.52 151 383.265 151 383C151 382.735 150.895 382.48 150.707 382.293C150.52 382.105 150.265 382 150 382H144C143.735 382 143.48 382.105 143.293 382.293C143.105 382.48 143 382.735 143 383C143 383.265 143.105 383.52 143.293 383.707C143.48 383.895 143.735 384 144 384Z" fill="white"/>
<path d="M189 380.387L163.5 395.109V365.664L189 380.387Z" fill="#FCB040"/>
<rect x="28.3574" y="78.0001" width="220.244" height="50" rx="4" transform="rotate(5 28.3574 78.0001)" fill="#FDDFB2"/>
<path d="M62.5613 110.483L63.5654 99.0065L65.0716 99.1382L68.4766 108.133L73.3679 99.8641L74.8901 99.9973L73.8868 111.465L72.3088 111.327L72.9956 103.477L68.6023 111.011L67.8452 110.945L64.8188 102.762L64.1313 110.62L62.5613 110.483ZM78.5287 112.121C77.8912 112.065 77.3674 111.901 76.9575 111.63C76.5481 111.353 76.2488 111.011 76.0595 110.604C75.8761 110.191 75.8048 109.751 75.8457 109.284C75.8839 108.848 75.9944 108.472 76.1773 108.156C76.3602 107.841 76.613 107.582 76.9359 107.38C77.2592 107.172 77.6476 107.016 78.1011 106.911C78.4934 106.833 78.935 106.773 79.4259 106.73C79.9169 106.687 80.4312 106.652 80.969 106.624C81.5122 106.597 82.05 106.569 82.5825 106.541L81.9475 106.822C82.0172 106.148 81.9174 105.637 81.6482 105.286C81.3848 104.931 80.8945 104.723 80.1772 104.66C79.7256 104.62 79.3019 104.69 78.9061 104.87C78.5107 105.044 78.2175 105.366 78.0265 105.837L76.5142 105.223C76.7914 104.503 77.2465 103.951 77.8797 103.567C78.5182 103.184 79.3342 103.036 80.3277 103.123C81.0981 103.19 81.756 103.382 82.3012 103.697C82.8522 104.008 83.2357 104.459 83.4516 105.051C83.5651 105.344 83.6241 105.649 83.6286 105.966C83.633 106.282 83.6194 106.621 83.5878 106.982L83.1242 112.282L81.6498 112.153L81.822 110.184L82.0866 110.464C81.673 111.092 81.1757 111.544 80.5948 111.819C80.0197 112.09 79.331 112.191 78.5287 112.121ZM78.9428 110.784C79.4157 110.825 79.8293 110.778 80.1838 110.643C80.5387 110.503 80.8311 110.312 81.0611 110.069C81.2911 109.827 81.4503 109.568 81.5387 109.292C81.6513 109.045 81.7269 108.762 81.7654 108.445C81.8092 108.127 81.8395 107.873 81.8563 107.682L82.3808 107.928C81.8478 107.962 81.3633 107.992 80.9274 108.018C80.4915 108.044 80.0954 108.074 79.7392 108.107C79.3887 108.135 79.0743 108.18 78.7959 108.241C78.5604 108.301 78.3475 108.378 78.1571 108.474C77.972 108.57 77.8194 108.694 77.6992 108.844C77.5843 108.994 77.5168 109.184 77.4968 109.412C77.4773 109.635 77.515 109.848 77.6098 110.049C77.7051 110.244 77.8621 110.408 78.0808 110.539C78.2995 110.671 78.5869 110.752 78.9428 110.784ZM85.1936 112.463L85.9467 103.856L87.429 103.985L87.2463 106.073L87.0628 105.784C87.1933 105.517 87.3535 105.277 87.5435 105.063C87.7339 104.844 87.9473 104.67 88.1834 104.541C88.4152 104.401 88.6676 104.3 88.9407 104.238C89.2196 104.171 89.5005 104.142 89.7835 104.151C90.067 104.154 90.3368 104.191 90.5929 104.262L90.4563 105.824C90.1812 105.725 89.8696 105.676 89.5214 105.678C89.1786 105.68 88.8556 105.762 88.5524 105.923C88.2661 106.074 88.0324 106.268 87.8511 106.504C87.6752 106.74 87.5392 107.009 87.4432 107.311C87.3476 107.608 87.285 107.926 87.2552 108.266L86.8752 112.61L85.1936 112.463ZM91.3496 113.001L92.3616 101.526L94.0512 101.674L93.4376 108.687L97.1793 104.838L99.2992 105.024L95.3523 109.015L98.9127 113.663L96.6494 113.465L93.4097 109.006L93.0471 113.15L91.3496 113.001ZM103.357 114.293C102.502 114.218 101.766 113.966 101.151 113.538C100.541 113.104 100.084 112.537 99.7817 111.836C99.4847 111.13 99.3751 110.333 99.4527 109.446C99.535 108.506 99.7817 107.705 100.193 107.045C100.609 106.386 101.15 105.895 101.815 105.573C102.48 105.251 103.233 105.127 104.072 105.2C104.949 105.277 105.678 105.547 106.258 106.01C106.839 106.468 107.248 107.084 107.485 107.86C107.728 108.636 107.772 109.537 107.619 110.562L105.953 110.416L106.006 109.811C106.083 108.811 105.956 108.055 105.626 107.545C105.301 107.035 104.762 106.746 104.007 106.68C103.173 106.607 102.523 106.816 102.057 107.305C101.591 107.794 101.315 108.536 101.228 109.529C101.145 110.475 101.291 111.226 101.665 111.784C102.04 112.336 102.623 112.646 103.415 112.716C103.935 112.761 104.395 112.684 104.792 112.483C105.196 112.277 105.523 111.963 105.774 111.541L107.363 112.202C106.96 112.943 106.401 113.496 105.684 113.862C104.967 114.222 104.191 114.366 103.357 114.293ZM100.645 109.952L100.759 108.653L106.903 109.19L106.79 110.489L100.645 109.952ZM113.996 114.983C113.445 115.041 112.91 115.04 112.391 114.979C111.871 114.917 111.415 114.776 111.022 114.554C110.63 114.332 110.347 114.013 110.175 113.596C110.02 113.224 109.95 112.854 109.967 112.486C109.989 112.113 110.02 111.693 110.061 111.225L110.727 103.614L112.4 103.761L111.741 111.292C111.711 111.637 111.688 111.938 111.671 112.193C111.659 112.449 111.696 112.669 111.782 112.853C111.944 113.2 112.23 113.415 112.641 113.499C113.057 113.578 113.55 113.602 114.12 113.572L113.996 114.983ZM108.751 107.2L108.868 105.861L114.749 106.375L114.632 107.714L108.751 107.2ZM119.161 115.434L120.165 103.958L121.831 104.104L120.964 114.01L126.161 114.465L126.023 116.035L119.161 115.434ZM128.412 106.149L128.554 104.532L130.219 104.677L130.078 106.295L128.412 106.149ZM127.536 116.167L128.289 107.56L129.954 107.706L129.201 116.313L127.536 116.167ZM137.635 117.051L138.006 112.819C138.035 112.484 138.036 112.139 138.008 111.783C137.986 111.423 137.909 111.084 137.776 110.767C137.648 110.451 137.449 110.187 137.178 109.976C136.913 109.765 136.552 109.64 136.095 109.6C135.797 109.574 135.511 109.6 135.237 109.678C134.963 109.75 134.715 109.886 134.494 110.087C134.279 110.287 134.097 110.56 133.949 110.906C133.806 111.252 133.713 111.68 133.668 112.19L132.666 111.709C132.734 110.928 132.941 110.253 133.285 109.684C133.63 109.109 134.09 108.678 134.667 108.391C135.243 108.104 135.92 107.995 136.695 108.063C137.29 108.115 137.781 108.254 138.168 108.481C138.555 108.707 138.86 108.988 139.082 109.323C139.31 109.654 139.475 110.008 139.576 110.387C139.676 110.765 139.735 111.131 139.752 111.486C139.77 111.841 139.767 112.151 139.743 112.417L139.325 117.199L137.635 117.051ZM131.587 116.522L132.34 107.914L133.83 108.045L133.612 110.531L133.812 110.549L133.276 116.669L131.587 116.522ZM141.393 117.379L142.405 105.904L144.094 106.052L143.481 113.065L147.222 109.217L149.342 109.402L145.396 113.393L148.956 118.041L146.693 117.843L143.453 113.384L143.09 117.528L141.393 117.379ZM152.169 118.563C151.532 118.507 151.008 118.344 150.598 118.072C150.189 117.796 149.889 117.454 149.7 117.046C149.517 116.634 149.445 116.194 149.486 115.727C149.524 115.291 149.635 114.915 149.818 114.599C150.001 114.283 150.254 114.024 150.576 113.822C150.9 113.615 151.288 113.459 151.742 113.354C152.134 113.276 152.576 113.216 153.067 113.173C153.557 113.13 154.072 113.095 154.61 113.067C155.153 113.04 155.691 113.012 156.223 112.983L155.588 113.265C155.658 112.591 155.558 112.079 155.289 111.729C155.025 111.374 154.535 111.165 153.818 111.103C153.366 111.063 152.942 111.133 152.547 111.313C152.151 111.487 151.858 111.809 151.667 112.28L150.155 111.665C150.432 110.945 150.887 110.394 151.52 110.01C152.159 109.627 152.975 109.479 153.968 109.566C154.739 109.633 155.397 109.825 155.942 110.14C156.493 110.451 156.876 110.902 157.092 111.493C157.206 111.787 157.265 112.092 157.269 112.408C157.274 112.725 157.26 113.063 157.228 113.425L156.765 118.724L155.29 118.595L155.463 116.627L155.727 116.907C155.314 117.535 154.816 117.986 154.235 118.262C153.66 118.533 152.972 118.633 152.169 118.563ZM152.583 117.226C153.056 117.268 153.47 117.221 153.824 117.086C154.179 116.946 154.472 116.754 154.702 116.512C154.932 116.27 155.091 116.011 155.179 115.735C155.292 115.488 155.367 115.205 155.406 114.887C155.45 114.57 155.48 114.316 155.497 114.124L156.021 114.371C155.488 114.405 155.004 114.435 154.568 114.461C154.132 114.487 153.736 114.516 153.38 114.549C153.029 114.578 152.715 114.622 152.436 114.684C152.201 114.743 151.988 114.821 151.798 114.917C151.613 115.013 151.46 115.136 151.34 115.286C151.225 115.437 151.157 115.627 151.137 115.855C151.118 116.078 151.156 116.29 151.25 116.491C151.346 116.687 151.503 116.851 151.721 116.982C151.94 117.114 152.227 117.195 152.583 117.226ZM162.025 123.28C161.563 123.24 161.12 123.129 160.697 122.947C160.279 122.766 159.905 122.519 159.573 122.206C159.242 121.899 158.977 121.53 158.779 121.101L160.385 120.454C160.539 120.837 160.781 121.129 161.112 121.329C161.442 121.529 161.799 121.646 162.181 121.68C162.654 121.721 163.065 121.671 163.415 121.531C163.764 121.395 164.038 121.168 164.237 120.848C164.442 120.528 164.563 120.121 164.601 119.627L164.812 117.22L165.011 117.237L165.572 110.822L167.047 110.951L166.274 119.789C166.254 120.018 166.226 120.235 166.192 120.441C166.158 120.646 166.111 120.851 166.05 121.055C165.878 121.623 165.602 122.081 165.224 122.428C164.851 122.775 164.39 123.019 163.843 123.158C163.3 123.298 162.695 123.339 162.025 123.28ZM162.232 119.444C161.43 119.373 160.754 119.114 160.204 118.664C159.66 118.215 159.259 117.634 159 116.92C158.747 116.202 158.658 115.413 158.733 114.552C158.809 113.686 159.036 112.927 159.414 112.275C159.793 111.617 160.292 111.117 160.911 110.775C161.535 110.429 162.251 110.29 163.059 110.361C163.872 110.432 164.537 110.691 165.055 111.138C165.578 111.58 165.951 112.156 166.173 112.866C166.399 113.576 166.475 114.362 166.4 115.223C166.325 116.084 166.114 116.844 165.767 117.504C165.42 118.165 164.95 118.672 164.357 119.027C163.764 119.377 163.056 119.516 162.232 119.444ZM162.595 117.958C163.142 118.005 163.6 117.914 163.968 117.684C164.336 117.454 164.62 117.118 164.819 116.675C165.019 116.232 165.145 115.713 165.197 115.118C165.249 114.522 165.212 113.989 165.088 113.518C164.968 113.047 164.75 112.669 164.432 112.384C164.119 112.1 163.703 111.935 163.182 111.89C162.63 111.841 162.164 111.937 161.784 112.177C161.404 112.417 161.107 112.757 160.891 113.199C160.681 113.641 160.552 114.144 160.502 114.707C160.453 115.275 160.493 115.798 160.622 116.275C160.758 116.748 160.986 117.134 161.308 117.435C161.635 117.737 162.064 117.911 162.595 117.958ZM172.328 120.327C171.473 120.252 170.737 120 170.121 119.572C169.512 119.138 169.055 118.571 168.753 117.87C168.456 117.164 168.346 116.367 168.424 115.48C168.506 114.54 168.753 113.74 169.164 113.08C169.58 112.42 170.121 111.929 170.786 111.607C171.451 111.285 172.204 111.161 173.043 111.235C173.92 111.311 174.648 111.581 175.229 112.044C175.81 112.502 176.219 113.119 176.456 113.894C176.699 114.67 176.743 115.571 176.589 116.596L174.924 116.45L174.977 115.845C175.054 114.845 174.927 114.09 174.597 113.579C174.272 113.069 173.732 112.781 172.978 112.715C172.144 112.642 171.494 112.85 171.028 113.339C170.562 113.828 170.286 114.57 170.199 115.563C170.116 116.509 170.262 117.26 170.636 117.818C171.011 118.37 171.594 118.681 172.386 118.75C172.906 118.795 173.366 118.718 173.763 118.517C174.167 118.311 174.494 117.997 174.745 117.575L176.334 118.236C175.931 118.977 175.372 119.53 174.654 119.896C173.938 120.256 173.162 120.4 172.328 120.327ZM169.616 115.986L169.73 114.687L175.874 115.225L175.761 116.524L169.616 115.986Z" fill="#2D2A56"/>
<rect x="196.958" y="92.7506" width="50" height="50" rx="4" transform="rotate(5 196.958 92.7506)" fill="#FCB040"/>
<g clip-path="url(#clip3_425_9991)">
<path fill-rule="evenodd" clip-rule="evenodd" d="M214.718 122.877L213.065 122.723L213.103 122.283C213.145 121.807 212.88 121.836 212.541 121.807L208.093 121.417C207.918 121.402 207.761 121.534 207.746 121.709L207.363 126.086C207.348 126.262 207.479 126.418 207.654 126.433L208.24 126.485L208.326 126.492C208.401 125.63 209.176 124.994 210.022 125.068C210.869 125.142 211.474 125.846 211.451 126.668C211.431 126.691 211.419 126.724 211.416 126.757C211.408 126.844 211.473 126.926 211.565 126.934L212.524 127.018C212.616 127.026 212.694 126.961 212.702 126.869L212.718 126.682L213.701 126.768C213.923 125.08 216.376 125.058 216.454 127.009L216.989 127.056L216.978 125.275L215.284 124.45L214.718 122.877ZM217.976 128.68C217.593 128.532 217.232 128.958 217.436 129.315C217.487 129.405 217.57 129.473 217.666 129.511C217.961 129.621 218.253 129.711 218.555 129.793C218.724 129.835 218.906 129.776 219.012 129.639C219.21 129.389 219.082 129.012 218.773 128.936C218.505 128.861 218.238 128.777 217.976 128.68ZM220.968 129.173C220.781 129.164 220.606 129.278 220.538 129.453C220.427 129.737 220.627 130.043 220.932 130.058C221.241 130.071 221.556 130.071 221.864 130.051C222.344 130.013 222.438 129.354 221.976 129.188C221.921 129.17 221.867 129.163 221.808 129.166C221.526 129.182 221.249 129.185 220.968 129.173ZM228.032 120.452C228.107 120.859 228.639 120.956 228.853 120.597C228.906 120.501 228.922 120.409 228.906 120.3C228.855 119.995 228.784 119.687 228.698 119.389C228.65 119.222 228.508 119.098 228.335 119.073C228.016 119.028 227.758 119.327 227.847 119.634C227.922 119.904 227.986 120.18 228.032 120.452ZM226.954 117.76C227.196 118.199 227.863 117.977 227.78 117.47C227.77 117.424 227.758 117.386 227.736 117.344C227.589 117.069 227.432 116.804 227.259 116.546C227.004 116.167 226.403 116.375 226.452 116.848C226.461 116.917 226.483 116.98 226.523 117.04C226.679 117.274 226.821 117.511 226.954 117.76ZM215.277 114.717C215.387 114.627 215.443 114.499 215.44 114.357C215.425 113.991 215 113.799 214.717 114.029C214.477 114.224 214.243 114.431 214.024 114.651C213.796 114.88 213.88 115.262 214.182 115.378C214.351 115.44 214.523 115.4 214.651 115.276C214.851 115.078 215.057 114.894 215.277 114.717ZM213.41 116.62C213.517 116.457 213.502 116.244 213.378 116.094C213.184 115.867 212.829 115.889 212.668 116.14C212.498 116.401 212.344 116.668 212.202 116.944C211.994 117.349 212.464 117.775 212.855 117.505C212.913 117.461 212.957 117.412 212.99 117.348C213.118 117.097 213.258 116.856 213.41 116.62ZM212.424 119.152C212.474 118.964 212.397 118.765 212.232 118.66C211.981 118.505 211.644 118.634 211.57 118.922C211.487 119.224 211.427 119.527 211.374 119.836C211.351 119.987 211.405 120.135 211.52 120.235C211.782 120.466 212.199 120.314 212.251 119.97C212.293 119.693 212.35 119.422 212.424 119.152ZM226.472 126.813C226.817 127.73 228.093 127.873 228.577 127.003C228.476 126.883 228.404 126.755 228.335 126.629C228.323 126.609 228.311 126.588 228.299 126.567C228.091 126.704 227.845 126.782 227.538 126.756C227.205 126.726 226.965 126.576 226.777 126.371C226.767 126.359 226.754 126.346 226.743 126.333C226.707 126.412 226.662 126.506 226.613 126.594C226.564 126.678 226.516 126.756 226.472 126.813ZM228.702 126.914C229.124 127.271 230.213 127.444 230.612 127.715C230.746 127.805 230.863 127.915 230.953 128.058C231.14 128.357 231.484 129.408 230.777 129.399C228.479 129.198 226.181 128.997 223.881 128.796C223.183 128.682 223.706 127.705 223.941 127.445C224.054 127.319 224.189 127.231 224.336 127.166C224.774 126.969 225.873 126.986 226.352 126.711C226.389 126.663 226.432 126.594 226.472 126.519C226.535 126.405 226.593 126.279 226.632 126.194C226.519 126.033 226.424 125.856 226.336 125.682L226.041 125.107C225.933 124.909 225.882 124.732 225.89 124.592C225.894 124.526 225.911 124.466 225.939 124.416C225.969 124.364 226.012 124.32 226.069 124.29C226.096 124.275 226.125 124.264 226.157 124.255C226.161 123.957 226.184 123.583 226.227 123.273C226.241 123.199 226.261 123.127 226.289 123.055C226.404 122.749 226.646 122.517 226.934 122.366C227.092 122.284 227.264 122.226 227.439 122.192C227.551 122.171 227.448 121.915 227.562 121.913C228.111 121.904 228.88 122.37 229.224 122.813C229.396 123.036 229.491 123.319 229.487 123.683L229.388 124.571C229.48 124.608 229.535 124.674 229.552 124.773C229.57 124.885 229.527 125.034 229.418 125.234C229.416 125.238 229.413 125.241 229.411 125.245L228.964 125.855C228.799 126.08 228.632 126.302 228.427 126.475C228.442 126.501 228.458 126.528 228.471 126.553C228.539 126.673 228.607 126.794 228.697 126.904C228.697 126.906 228.701 126.91 228.702 126.914ZM226.341 124.43C226.265 124.427 226.205 124.437 226.164 124.459C226.14 124.473 226.122 124.491 226.111 124.511C226.097 124.536 226.088 124.566 226.087 124.601C226.082 124.707 226.124 124.848 226.216 125.013L226.218 125.015L226.512 125.589C226.632 125.82 226.756 126.056 226.921 126.235C227.08 126.408 227.279 126.533 227.555 126.557C227.855 126.583 228.082 126.491 228.276 126.342C228.476 126.185 228.643 125.96 228.807 125.737L229.25 125.135C229.336 124.978 229.373 124.869 229.361 124.804C229.355 124.764 229.314 124.743 229.242 124.732C229.227 124.731 229.211 124.73 229.195 124.728C229.178 124.727 229.16 124.727 229.141 124.727C229.131 124.727 229.121 124.726 229.112 124.723C229.076 124.722 229.042 124.717 229.007 124.708L229.191 124.134C228.194 124.203 227.525 123.41 226.45 123.747L226.464 124.444C226.417 124.442 226.378 124.437 226.341 124.43ZM216.795 115.397L224.962 116.112L224.921 116.571L216.755 115.856L216.795 115.397ZM221.504 109.831L221.321 110.778L222.393 110.872L222.377 109.908L221.504 109.831ZM218.792 108.357L218.537 109.678L220.035 109.809L220.014 108.464L218.792 108.357ZM218.487 109.93L218.362 110.578L220.049 110.725L220.038 110.066L218.487 109.93ZM218.314 110.831L218.11 112.005L217.49 111.833L217.195 115.203L224.604 115.851L224.797 113.645L222.37 113.177L222.406 111.71L221.161 111.601L220.995 112.798L220.057 112.54L220.052 110.983L218.314 110.831ZM221.285 110.957L221.196 111.422L222.402 111.527L222.395 111.054L221.285 110.957ZM209.99 125.395C209.379 125.341 208.846 125.793 208.792 126.4C208.739 127.011 209.19 127.544 209.797 127.597C210.408 127.651 210.942 127.199 210.995 126.592C211.048 125.983 210.597 125.448 209.99 125.395ZM209.931 126.074C209.697 126.053 209.49 126.227 209.469 126.461C209.449 126.694 209.623 126.902 209.856 126.922C210.09 126.943 210.297 126.769 210.318 126.535C210.338 126.3 210.164 126.094 209.931 126.074ZM215.167 125.848C214.557 125.794 214.023 126.246 213.97 126.853C213.916 127.464 214.368 127.997 214.975 128.05C215.586 128.104 216.119 127.652 216.172 127.045C216.228 126.437 215.775 125.901 215.167 125.848ZM215.108 126.527C214.875 126.506 214.667 126.68 214.647 126.914C214.626 127.147 214.8 127.355 215.034 127.375C215.267 127.396 215.475 127.222 215.495 126.988C215.516 126.753 215.344 126.547 215.108 126.527ZM214.253 123.305L213.433 123.224L213.34 124.282L214.716 124.403L214.253 123.305Z" fill="white"/>
</g>
<path d="M261.49 123.88L234.804 136.324L237.37 106.991L261.49 123.88Z" fill="#FCB040"/>
<rect x="381.979" width="144" height="50" rx="4" transform="rotate(9.18358 381.979 0)" fill="#FDDFB2"/>
<path d="M411.702 36.2078L413.54 24.8355L418.01 25.5581C418.731 25.6747 419.313 25.92 419.755 26.294C420.197 26.668 420.504 27.1093 420.676 27.6179C420.848 28.1212 420.893 28.6309 420.809 29.1469C420.708 29.7734 420.466 30.2853 420.083 30.6826C419.705 31.0808 419.242 31.3193 418.695 31.3983L418.742 31.0087C419.439 31.3052 419.941 31.7455 420.246 32.3298C420.552 32.9087 420.65 33.5431 420.538 34.2328C420.43 34.9014 420.202 35.4615 419.853 35.913C419.51 36.3653 419.06 36.6897 418.504 36.8862C417.955 37.0783 417.319 37.116 416.598 36.9994L411.702 36.2078ZM413.63 34.9069L416.599 35.3869C416.973 35.4474 417.319 35.4304 417.637 35.3359C417.96 35.2422 418.227 35.0774 418.438 34.8414C418.655 34.601 418.794 34.2965 418.853 33.9279C418.908 33.5857 418.882 33.2654 418.773 32.9669C418.671 32.664 418.491 32.4106 418.232 32.2067C417.979 31.9984 417.663 31.8636 417.284 31.8023L414.212 31.3056L413.63 34.9069ZM414.464 29.7498L417.236 30.198C417.541 30.2474 417.825 30.2311 418.086 30.1491C418.354 30.0628 418.578 29.9153 418.758 29.7066C418.943 29.4935 419.063 29.2211 419.117 28.8894C419.188 28.4472 419.099 28.06 418.851 27.7281C418.602 27.3961 418.23 27.1901 417.735 27.1101L414.963 26.6619L414.464 29.7498ZM421.573 37.8038L423.412 26.4314L426.974 27.0073C427.079 27.0243 427.273 27.0584 427.557 27.1096C427.846 27.1617 428.119 27.2275 428.376 27.3069C429.248 27.5613 429.944 28.0007 430.464 28.6251C430.99 29.2503 431.342 29.9935 431.522 30.8545C431.702 31.7102 431.715 32.6199 431.559 33.5834C431.402 34.5521 431.103 35.4168 430.661 36.1774C430.221 36.9327 429.652 37.5242 428.956 37.952C428.267 38.3753 427.468 38.5704 426.56 38.5371C426.291 38.5314 426.011 38.5077 425.721 38.4662C425.436 38.4255 425.24 38.3966 425.135 38.3796L421.573 37.8038ZM423.518 36.5054L425.389 36.808C425.568 36.837 425.782 36.8662 426.031 36.8956C426.281 36.9251 426.503 36.9394 426.697 36.9384C427.294 36.9215 427.803 36.7472 428.224 36.4154C428.651 36.0793 428.996 35.6379 429.257 35.0913C429.518 34.5446 429.701 33.9475 429.806 33.2999C429.914 32.6313 429.927 31.9986 429.845 31.4019C429.764 30.7999 429.573 30.2774 429.272 29.8343C428.977 29.3868 428.554 29.0645 428.002 28.8672C427.818 28.7997 427.601 28.7429 427.349 28.6968C427.103 28.6463 426.893 28.607 426.72 28.5789L424.848 28.2763L423.518 36.5054ZM436.563 40.4702C435.747 40.3383 435.032 40.0796 434.419 39.6942C433.812 39.3043 433.338 38.8143 432.996 38.2241C432.659 37.6295 432.487 36.9614 432.477 36.2196L434.241 36.2374C434.302 36.9604 434.578 37.5615 435.067 38.0404C435.558 38.5142 436.172 38.8106 436.909 38.9298C437.367 39.0038 437.8 39.0008 438.207 38.9208C438.615 38.8355 438.957 38.6774 439.232 38.4463C439.513 38.2108 439.684 37.9036 439.746 37.5245C439.779 37.3191 439.771 37.1315 439.723 36.9617C439.68 36.7927 439.605 36.64 439.497 36.5038C439.396 36.3631 439.263 36.2362 439.097 36.123C438.938 36.0054 438.758 35.898 438.558 35.8008L435.783 34.4688C435.512 34.3386 435.24 34.1839 434.966 34.0046C434.694 33.82 434.451 33.5998 434.238 33.3439C434.032 33.0836 433.878 32.7806 433.778 32.4347C433.678 32.0836 433.665 31.6764 433.74 31.2131C433.853 30.5128 434.128 29.9495 434.564 29.523C435.007 29.0921 435.556 28.8027 436.212 28.6548C436.869 28.5017 437.579 28.4868 438.342 28.6102C439.109 28.7451 439.774 28.993 440.337 29.3542C440.905 29.7161 441.35 30.1769 441.67 30.7365C441.996 31.2917 442.179 31.9318 442.218 32.6567L440.401 32.6708C440.391 32.2316 440.281 31.8384 440.073 31.4913C439.865 31.139 439.587 30.851 439.24 30.6274C438.893 30.3984 438.502 30.246 438.066 30.1701C437.646 30.0915 437.249 30.0921 436.874 30.172C436.505 30.2527 436.195 30.3997 435.944 30.6131C435.699 30.8274 435.55 31.0951 435.498 31.4163C435.447 31.7322 435.498 32.0024 435.651 32.227C435.804 32.4516 436.005 32.6435 436.255 32.8028C436.51 32.9576 436.767 33.0936 437.023 33.2107L439.028 34.1426C439.28 34.2589 439.561 34.407 439.872 34.587C440.19 34.7626 440.486 34.986 440.761 35.2574C441.041 35.5296 441.254 35.8666 441.399 36.2683C441.546 36.6648 441.575 37.1394 441.485 37.6923C441.393 38.2661 441.195 38.7528 440.893 39.1524C440.591 39.5467 440.214 39.8584 439.761 40.0877C439.314 40.3126 438.815 40.4562 438.265 40.5185C437.715 40.5808 437.147 40.5647 436.563 40.4702Z" fill="#2D2A56"/>
<rect x="473.788" y="14.8427" width="50" height="50" rx="4" transform="rotate(9.18358 473.788 14.8427)" fill="#FCB040"/>
<g clip-path="url(#clip4_425_9991)">
<path fill-rule="evenodd" clip-rule="evenodd" d="M490.298 30.6805L506.132 33.2404L503.276 50.9036C503.168 51.3939 502.529 51.3021 501.844 51.1587L487.131 48.78C486.672 48.7058 486.202 48.817 485.825 49.0893C485.447 49.3616 485.194 49.7726 485.12 50.2319C485.045 50.6912 485.156 51.1612 485.429 51.5385C485.701 51.9158 486.112 52.1695 486.571 52.2437L501.91 54.7236L502.208 52.8812L503.563 53.1003L503.185 55.4412C503.151 55.6468 503.037 55.8306 502.869 55.9525C502.7 56.0744 502.489 56.1245 502.284 56.0917L486.433 53.5291C484.615 53.8873 483.439 52.2661 483.717 50.5437L486.483 33.4334C486.626 32.5637 487.108 31.7859 487.823 31.2701C488.537 30.7543 489.427 30.5423 490.298 30.6805V30.6805ZM486.79 50.8693L500.877 53.1467C500.945 53.1578 501.007 53.1957 501.047 53.2521C501.088 53.3084 501.105 53.3786 501.094 53.4472L501.068 53.6046C501.057 53.673 501.019 53.7341 500.962 53.7746C500.906 53.8152 500.836 53.832 500.768 53.8215L486.681 51.544C486.612 51.5329 486.55 51.495 486.509 51.4387C486.468 51.3823 486.451 51.3121 486.462 51.2432L486.487 51.0858C486.499 51.0171 486.537 50.9558 486.594 50.9152C486.651 50.8747 486.721 50.8581 486.79 50.8693ZM487.006 49.531L501.093 51.8085C501.162 51.8196 501.223 51.8575 501.264 51.9138C501.304 51.9702 501.321 52.0404 501.31 52.109L501.285 52.2664C501.273 52.3348 501.235 52.3958 501.179 52.4364C501.123 52.477 501.053 52.4938 500.984 52.4832L486.897 50.2058C486.828 50.1947 486.767 50.1568 486.726 50.1005C486.685 50.0441 486.668 49.9738 486.678 49.905L486.704 49.7476C486.715 49.6789 486.754 49.6176 486.81 49.577C486.867 49.5364 486.937 49.5199 487.006 49.531Z" fill="white"/>
</g>
<path d="M535.877 50.597L508.354 61.061L513.054 31.9936L535.877 50.597Z" fill="#FCB040"/>
<path d="M239.314 515.396C243.399 519.641 250.151 519.771 254.396 515.686C258.641 511.601 258.771 504.849 254.686 500.604C250.601 496.359 243.849 496.229 239.604 500.314C235.359 504.399 235.229 511.151 239.314 515.396ZM637.314 132.396C641.399 136.641 648.151 136.771 652.396 132.686C656.641 128.601 656.771 121.849 652.686 117.604C648.601 113.359 641.849 113.229 637.604 117.314C633.359 121.399 633.229 128.151 637.314 132.396ZM248.387 509.441L646.387 126.441L643.613 123.559L245.613 506.559L248.387 509.441Z" fill="#FCBF66"/>
<path d="M250.771 118.213C247.023 122.758 247.668 129.481 252.213 133.229C256.758 136.977 263.481 136.332 267.229 131.787C270.977 127.242 270.332 120.519 265.787 116.771C261.242 113.023 254.519 113.668 250.771 118.213ZM678.771 471.213C675.023 475.758 675.668 482.481 680.213 486.229C684.758 489.977 691.481 489.332 695.229 484.787C698.977 480.242 698.332 473.519 693.787 469.771C689.242 466.023 682.519 466.668 678.771 471.213ZM257.727 126.543L685.727 479.543L688.273 476.457L260.273 123.457L257.727 126.543Z" fill="#FCBF66"/>
<path d="M178.784 231.933C177.09 237.575 180.291 243.523 185.933 245.216C191.575 246.91 197.523 243.709 199.216 238.067C200.91 232.425 197.709 226.477 192.067 224.784C186.425 223.09 180.477 226.291 178.784 231.933ZM711.784 391.933C710.09 397.576 713.291 403.523 718.933 405.216C724.576 406.91 730.523 403.709 732.216 398.067C733.91 392.425 730.709 386.477 725.067 384.784C719.425 383.09 713.478 386.291 711.784 391.933ZM188.425 236.916L721.425 396.916L722.575 393.084L189.575 233.084L188.425 236.916Z" fill="#FCBF66"/>
<path d="M178.662 382.771C179.997 388.509 185.731 392.078 191.468 390.743C197.206 389.408 200.775 383.674 199.44 377.936C198.105 372.198 192.371 368.629 186.633 369.965C180.895 371.3 177.326 377.034 178.662 382.771ZM714.561 258.064C715.896 263.802 721.63 267.37 727.367 266.035C733.105 264.7 736.674 258.966 735.339 253.229C734.004 247.491 728.27 243.922 722.532 245.257C716.794 246.592 713.225 252.326 714.561 258.064ZM189.504 382.302L725.403 257.594L724.496 253.698L188.597 378.406L189.504 382.302Z" fill="#FCBF66"/>
<path d="M537.969 38.5167C532.179 37.4291 526.604 41.241 525.517 47.0308C524.429 52.8205 528.241 58.3957 534.031 59.4833C539.821 60.5709 545.396 56.759 546.483 50.9692C547.571 45.1795 543.759 39.6043 537.969 38.5167ZM435.969 581.517C430.179 580.429 424.604 584.241 423.517 590.031C422.429 595.821 426.241 601.396 432.031 602.483C437.821 603.571 443.396 599.759 444.483 593.969C445.571 588.179 441.759 582.604 435.969 581.517ZM534.034 48.6308L432.034 591.631L435.966 592.369L537.966 49.3692L534.034 48.6308Z" fill="#FCBF66"/>
<path d="M327.826 56.672C322.675 59.5294 320.815 66.022 323.672 71.1737C326.529 76.3254 333.022 78.1853 338.174 75.328C343.325 72.4706 345.185 65.978 342.328 60.8263C339.471 55.6746 332.978 53.8147 327.826 56.672ZM596.826 541.672C591.675 544.529 589.815 551.022 592.672 556.174C595.529 561.325 602.022 563.185 607.174 560.328C612.325 557.471 614.185 550.978 611.328 545.826C608.471 540.675 601.978 538.815 596.826 541.672ZM331.251 66.9701L600.251 551.97L603.749 550.03L334.749 65.0299L331.251 66.9701Z" fill="#FCBF66"/>
<defs>
<clipPath id="clip0_425_9991">
<rect width="20" height="19.8307" fill="white" transform="translate(677 113)"/>
</clipPath>
<clipPath id="clip1_425_9991">
<rect width="20" height="25.0622" fill="white" transform="translate(757.5 382)"/>
</clipPath>
<clipPath id="clip2_425_9991">
<rect width="24" height="31.1878" fill="white" transform="translate(634.5 535)"/>
</clipPath>
<clipPath id="clip3_425_9991">
<rect width="24" height="21.4316" fill="white" transform="translate(208.989 107.499) rotate(5)"/>
</clipPath>
<clipPath id="clip4_425_9991">
<rect width="20" height="23.3302" fill="white" transform="translate(487.014 30.1497) rotate(9.18358)"/>
</clipPath>
</defs>
</svg>
